<svg width="74" height="65" viewBox="0 0 74 65" xmlns="http://www.w3.org/2000/svg" xmlns:xlink="http://www.w3.org/1999/xlink"><svg width="16" height="14" viewBox="0 0 16 14" x="20" y="20"><title>B42178D2-68E6-4E71-8F80-11202101E184</title><path d="M2 4a2 2 0 1 0 0-4 2 2 0 0 0 0 4zm0 5a2 2 0 1 0 0-4 2 2 0 0 0 0 4zm0 5a2 2 0 1 0 0-4 2 2 0 0 0 0 4zM6 1h10v2H6V1zm0 5h10v2H6V6zm0 5h10v2H6v-2z" fill="#ed1e23" fill-rule="evenodd"/></svg><svg width="16" height="14" viewBox="0 0 16 14" x="58"><title>799DEC0A-5110-4782-AAB2-84EF3BF6F025</title><path d="M1 4h14v9.005a1 1 0 0 1-1.007.995H2.007A1.008 1.008 0 0 1 1 13.005V4zm5 2h4v2H6V6zM0 3h16V.999A.998.998 0 0 0 15 0H1C.449 0 0 .443 0 .999V3z" fill="#FFF" fill-rule="evenodd"/></svg><svg width="18" height="20" viewBox="0 0 18 20" x="20"><title>ABB0F339-CE1A-482F-AF52-ABBBB25075CF</title><g fill="#A6AEB6" fill-rule="evenodd"><path d="M6 2h6V0h2v2h2.005C17.107 2 18 2.893 18 3.995v14.01A1.995 1.995 0 0 1 16.005 20H1.995A1.995 1.995 0 0 1 0 18.005V3.995C0 2.893.893 2 1.995 2H4V0h2v2zm6 0h2v2h-2V2zM6 2H4v2h2V2zM2 8h14v10H2V8z"/><path d="M10 12h4v4h-4z"/></g></svg><svg width="13" height="12" viewBox="0 0 13 12" x="45" y="36"><title>D50C2279-3755-4590-B1A5-615F381B3F8C</title><path d="M.63 11.641L11.818.453m0 11.188L.63.453" stroke="#FFF" fill="none"/></svg><svg width="13" height="12" viewBox="0 0 13 12" x="32" y="36"><title>D50C2279-3755-4590-B1A5-615F381B3F8C</title><path d="M.63 11.641L11.818.453m0 11.188L.63.453" stroke="#757e87" fill="none"/></svg><svg width="10" height="20" viewBox="0 0 10 20" x="38" y="11"><title>DE66AAA4-17A6-4FB6-8E20-3255A2AFDC94</title><path d="M0 6.614h2.142V4.605c0-.887.023-2.253.69-3.1C3.535.609 4.5 0 6.16 0 8.862 0 10 .372 10 .372l-.536 3.064s-.892-.25-1.726-.25c-.833 0-1.58.288-1.58 1.092v2.336h3.418l-.239 2.992H6.16V20H2.142V9.606H0V6.614" fill="#8C9399" fill-rule="evenodd"/></svg><svg width="16" height="14" viewBox="0 0 16 14" y="36"><title>B42178D2-68E6-4E71-8F80-11202101E184</title><path d="M2 4a2 2 0 1 0 0-4 2 2 0 0 0 0 4zm0 5a2 2 0 1 0 0-4 2 2 0 0 0 0 4zm0 5a2 2 0 1 0 0-4 2 2 0 0 0 0 4zM6 1h10v2H6V1zm0 5h10v2H6V6zm0 5h10v2H6v-2z" fill="#A6AEB6" fill-rule="evenodd"/></svg><svg width="12" height="15" viewBox="0 0 12 15" x="15" y="50"><title>244B12C3-F1EF-4C8F-ACB8-DD498FC8EB3C</title><defs><rect id="a" x="2" width="8" height="7" rx="1"/><mask id="b" x="0" y="0" width="8" height="7" fill="#fff"><use xlink:href="#a"/></mask></defs><g fill="none" fill-rule="evenodd"><path d="M0 5.995C0 5.445.456 5 1.002 5h9.996C11.55 5 12 5.456 12 5.995v8.01c0 .55-.456.995-1.002.995H1.002A1.005 1.005 0 0 1 0 14.005v-8.01zM5 8h2v4H5V8z" fill="#FFF"/><use stroke="#FFF" mask="url(#b)" stroke-width="4" xlink:href="#a"/></g></svg><svg width="16" height="16" viewBox="0 0 16 16" x="58" y="30"><title>147E1DC4-3BE3-452A-9B18-63AE01F52C35</title><path d="M4.973 7.87a2.52 2.52 0 0 0 .015-.616l6.875-2.864a2.5 2.5 0 1 0-.862-1.806l-7 2.916a2.5 2.5 0 1 0-.097 4.069l7.123 3.562a2.5 2.5 0 1 0 1.07-1.7L4.972 7.869z" fill="#00AEFF" fill-rule="evenodd"/></svg><svg width="8" height="16" viewBox="0 0 8 16" x="58" y="14"><title>2D699028-9887-4CA2-A3CB-AA324B721A95</title><path d="M5.32 16H1.773V7.999H0V5.242h1.773V3.587c0-2.249 1-3.587 3.844-3.587h2.367v2.758h-1.48c-1.107 0-1.18.385-1.18 1.104l-.005 1.38H8L7.686 8H5.32v8z" fill="#FFF" fill-rule="evenodd"/></svg><svg width="15" height="15" viewBox="0 0 15 15" y="50"><title>83300A94-CDB3-4E8A-A3B9-F7372CF5A9BF</title><path d="M.378 4.81h2.924v10.189H.378V4.809zm1.388-1.275h-.022C.686 3.535 0 2.756 0 1.77 0 .764.706 0 1.786 0c1.079 0 1.742.762 1.763 1.767 0 .987-.684 1.768-1.783 1.768zM15 15h-3.315V9.726c0-1.38-.519-2.321-1.66-2.321-.871 0-1.356.635-1.582 1.248-.085.22-.072.526-.072.833V15H5.087s.042-9.341 0-10.19h3.284v1.599c.194-.7 1.244-1.697 2.919-1.697 2.078 0 3.71 1.466 3.71 4.621V15z" fill="#FFF" fill-rule="evenodd"/></svg><svg width="16" height="13" viewBox="0 0 16 13" x="16" y="36"><title>BADD6237-FF8C-4A52-A80E-923A19931E32</title><path d="M14.115 2.055A3.282 3.282 0 0 0 15.558.24a6.57 6.57 0 0 1-2.085.797 3.281 3.281 0 0 0-5.677 2.245c0 .257.027.507.083.747A9.319 9.319 0 0 1 1.114.6 3.283 3.283 0 0 0 2.13 4.983a3.295 3.295 0 0 1-1.488-.41v.04A3.281 3.281 0 0 0 3.277 7.83a3.212 3.212 0 0 1-.866.116 3.25 3.25 0 0 1-.617-.058 3.283 3.283 0 0 0 3.066 2.278 6.587 6.587 0 0 1-4.077 1.405c-.265 0-.527-.014-.783-.045A9.298 9.298 0 0 0 5.032 13c6.038 0 9.339-5 9.339-9.337a8.53 8.53 0 0 0-.009-.425A6.647 6.647 0 0 0 16 1.538a6.556 6.556 0 0 1-1.885.517z" fill="#FFF" fill-rule="evenodd"/></svg><svg width="20" height="11" viewBox="0 0 20 11" x="38"><title>3AB59D9B-3C6A-4851-9933-3CEBD0E31B87</title><path d="M10.98 10.954s.362-.039.547-.23c.169-.175.163-.507.163-.507s-.022-1.545.722-1.773c.734-.225 1.676 1.494 2.675 2.155.755.5 1.329.39 1.329.39l2.671-.035s1.397-.083.735-1.142c-.055-.087-.387-.784-1.986-2.215-1.676-1.499-1.45-1.256.566-3.849 1.23-1.579 1.72-2.542 1.567-2.954-.146-.395-1.05-.29-1.05-.29l-3.007.018s-.223-.03-.388.066c-.162.093-.266.311-.266.311s-.476 1.221-1.11 2.26c-1.34 2.192-1.875 2.308-2.094 2.173-.51-.318-.383-1.275-.383-1.955 0-2.125.335-3.01-.65-3.24-.327-.076-.567-.126-1.404-.135-1.073-.01-1.98.004-2.495.246-.343.162-.607.522-.445.543.198.025.648.117.887.43.308.404.297 1.312.297 1.312s.177 2.5-.413 2.81c-.405.214-.961-.22-2.155-2.21C4.68 2.115 4.22.99 4.22.99S4.13.779 3.97.665a1.259 1.259 0 0 0-.462-.179L.652.504S.222.515.065.696c-.14.159-.01.49-.01.49s2.236 5.046 4.77 7.59c2.323 2.33 4.96 2.178 4.96 2.178h1.196z" fill="#FFF" fill-rule="evenodd"/></svg><svg width="15" height="14" viewBox="0 0 15 14" x="27" y="50"><title>E8637E9C-17D1-4732-A7FC-527D0D00F730</title><path d="M7.44 10.776l-3.297 2.295c-.91.633-1.39.295-1.066-.774L4.24 8.451l-3.2-2.427c-.883-.67-.71-1.23.407-1.253l4.017-.081L6.782.895c.364-1.047.95-1.055 1.317 0l1.32 3.795 4.016.081c1.108.023 1.297.578.407 1.253L10.64 8.451l1.164 3.846c.32 1.06-.149 1.412-1.066.774L7.44 10.776z" fill="#FFF" fill-rule="evenodd"/></svg><svg viewBox="0 0 20 16" width="20" height="16" y="20"><title>2FA6C9FF-036E-4538-9FA8-6C2E0E524712</title><path d="M20 1.894a8.31 8.31 0 0 1-2.357.636A4.05 4.05 0 0 0 19.447.296a8.26 8.26 0 0 1-2.606.979A4.123 4.123 0 0 0 13.846 0c-2.265 0-4.102 1.809-4.102 4.039 0 .317.035.624.106.92A11.715 11.715 0 0 1 1.392.739 3.98 3.98 0 0 0 .837 2.77c0 1.4.725 2.636 1.825 3.361a4.162 4.162 0 0 1-1.86-.504v.05c0 1.958 1.415 3.59 3.293 3.96a4.065 4.065 0 0 1-1.081.142c-.265 0-.522-.024-.772-.071a4.096 4.096 0 0 0 3.833 2.803 8.317 8.317 0 0 1-5.096 1.73A8.33 8.33 0 0 1 0 14.185 11.755 11.755 0 0 0 6.289 16c7.55 0 11.675-6.154 11.675-11.492 0-.175-.003-.35-.011-.523A8.235 8.235 0 0 0 20 1.895" fill="#8C9399" fill-rule="evenodd"/></svg><svg width="20" height="20" viewBox="0 0 20 20"><title>38C8A2E2-955F-4790-A681-D657C1D952F5</title><defs><rect id="c" y="10" width="10" height="12" rx="4"/><mask id="e" x="0" y="0" width="10" height="12" fill="#fff"><use xlink:href="#c"/></mask><rect id="d" width="10" height="12" rx="4"/><mask id="f" x="0" y="0" width="10" height="12" fill="#fff"><use xlink:href="#d"/></mask></defs><g transform="rotate(45 8.485 17.071)" fill="none" fill-rule="evenodd"><use stroke="#00AEFF" mask="url(#e)" stroke-width="4.4" xlink:href="#c"/><use stroke="#00AEFF" mask="url(#f)" stroke-width="4.4" xlink:href="#d"/><rect fill="#00AEFF" x="4" y="7" width="2" height="8" rx="1"/></g></svg></svg>